<?xml version="1.0" encoding="UTF-8" standalone="no"?>
<svg
   xmlns:dc="http://purl.org/dc/elements/1.1/"
   xmlns:cc="http://creativecommons.org/ns#"
   xmlns:rdf="http://www.w3.org/1999/02/22-rdf-syntax-ns#"
   xmlns:svg="http://www.w3.org/2000/svg"
   xmlns="http://www.w3.org/2000/svg"
   xml:space="preserve"
   style="enable-background:new 0 0 2687.4 1495.4;"
   viewBox="0 0 2687.4 1495.4"
   y="0px"
   x="0px"
   id="Layer_1"
   version="1.1"><metadata
     id="metadata85"><rdf:RDF><cc:Work
         rdf:about=""><dc:format>image/svg+xml</dc:format><dc:type
           rdf:resource="http://purl.org/dc/dcmitype/StillImage" /></cc:Work></rdf:RDF></metadata><defs
     id="defs83" /><style
     id="style2"
     type="text/css">
	.st0{fill:#50AE58;}
	.st1{fill:#418DC8;}
	.st2{fill:#F7D349;}
	.st3{fill:#58595B;}
</style><g
     id="g78"><g
       id="g6"><path
         id="path4"
         d="M1590.1,889.7h-141.9l-27.1,65.5h-72.5l136.2-305.6h69.9l136.7,305.6h-74.2L1590.1,889.7z M1567.9,836    l-48.5-117l-48.5,117H1567.9z"
         class="st0" /></g><g
       id="g10"><path
         id="path8"
         d="M1079.6,835.1l-41,42.8v77.3h-70.3V649.5h70.3v142.8l135.4-142.8h78.6l-126.6,136.2l134,169.4h-82.5    L1079.6,835.1z"
         class="st1" /></g><g
       id="g14"><path
         id="path12"
         d="M1267.1,649.5h70.7v305.6h-70.7V649.5z"
         class="st2" /></g><g
       id="g68"><polygon
         id="polygon16"
         points="999.8,1024 990.4,1024 980.3,1045.5 980.3,1024 971,1024 971,1078.7 980.3,1078.7 980.3,1061.3     983.2,1055.3 990.2,1078.7 999.8,1078.7 989.5,1044.2   "
         class="st3" /><rect
         id="rect18"
         height="54.7"
         width="9.2"
         class="st3"
         y="1024"
         x="1002.9" /><path
         id="path20"
         d="M1030.1,1023.3c-4.2,0-7.5,1.2-9.7,3.6c-2.2,2.4-3.3,5.9-3.3,10.3v28.4c0,4.4,1.1,7.9,3.3,10.3    c2.2,2.4,5.5,3.6,9.7,3.6s7.5-1.2,9.7-3.6c2.2-2.4,3.3-5.9,3.3-10.3v-18h-13v8.5h4.2v10.2c0,3.3-1.3,4.9-4,4.9c-2.7,0-4-1.6-4-4.9    v-29.5c0-3.3,1.3-4.9,4-4.9c2.7,0,4,1.6,4,4.9v5.5h8.8v-5c0-4.4-1.1-7.9-3.3-10.3C1037.6,1024.5,1034.3,1023.3,1030.1,1023.3z"
         class="st3" /><path
         id="path22"
         d="M1066.6,1024h-12.1l-8.9,54.7h8.6l1.5-10.6h9l1.5,10.6h9.2l-8.9-54.4L1066.6,1024z M1063.6,1060.1h-6.8    l3.3-24.1L1063.6,1060.1z"
         class="st3" /><polygon
         id="polygon24"
         points="1088,1024 1078.8,1024 1078.8,1078.7 1102,1078.7 1102,1070.3 1088,1070.3   "
         class="st3" /><rect
         id="rect26"
         height="54.7"
         width="9.2"
         class="st3"
         y="1024"
         x="1105.3" /><rect
         id="rect28"
         height="54.7"
         width="9.2"
         class="st3"
         y="1024"
         x="1132.4" /><polygon
         id="polygon30"
         points="1166.3,1054.3 1158.5,1024 1147.2,1024 1147.2,1078.7 1155.5,1078.7 1155.5,1041.3 1165.1,1078.5     1165.2,1078.7 1174.6,1078.7 1174.6,1024 1166.3,1024   "
         class="st3" /><polygon
         id="polygon32"
         points="1177.9,1032.5 1186.8,1032.5 1186.8,1078.7 1196,1078.7 1196,1032.5 1204.9,1032.5 1204.9,1024     1177.9,1024   "
         class="st3" /><polygon
         id="polygon34"
         points="1208.2,1078.7 1232.1,1078.7 1232.1,1070.3 1217.4,1070.3 1217.4,1054.5 1229.1,1054.5 1229.1,1046     1217.4,1046 1217.4,1032.5 1232.1,1032.5 1232.1,1024 1208.2,1024   "
         class="st3" /><path
         id="path36"
         d="M1262.3,1075.5c-0.1-0.9-0.2-2.2-0.2-3.7v-9.5c0-3.2-0.4-5.8-1.3-7.8c-0.8-1.8-2.1-3-3.9-3.7    c3.4-1.7,5.1-5.3,5.1-10.7v-3.3c0-4.3-1-7.5-3.1-9.6c-2.1-2.1-5.4-3.2-9.8-3.2h-12.9v54.7h9.2v-23.1h2.6c1.8,0,3.1,0.4,3.8,1.3    c0.7,0.9,1.1,2.6,1.1,4.9v9.9c0,2,0.1,3.4,0.2,4.2c0.1,0.8,0.3,1.6,0.6,2.5l0.1,0.3h9.5l-0.2-0.5    C1262.6,1077.3,1262.4,1076.4,1262.3,1075.5z M1252.8,1037.7v4.2c0,1.9-0.4,3.3-1.2,4.1c-0.8,0.8-2,1.2-3.5,1.2h-2.7v-14.7h3.5    c1.4,0,2.4,0.4,3,1.2C1252.5,1034.5,1252.8,1035.8,1252.8,1037.7z"
         class="st3" /><polygon
         id="polygon38"
         points="1286.3,1054.3 1278.5,1024 1267.2,1024 1267.2,1078.7 1275.5,1078.7 1275.5,1041.3 1285.1,1078.5     1285.2,1078.7 1294.6,1078.7 1294.6,1024 1286.3,1024   "
         class="st3" /><path
         id="path40"
         d="M1318.9,1024h-12.1l-8.9,54.7h8.6l1.5-10.6h9l1.5,10.6h9.2l-8.9-54.4L1318.9,1024z M1315.9,1060.1h-6.8    l3.3-24.1L1315.9,1060.1z"
         class="st3" /><polygon
         id="polygon42"
         points="1325.3,1032.5 1334.1,1032.5 1334.1,1078.7 1343.4,1078.7 1343.4,1032.5 1352.2,1032.5 1352.2,1024     1325.3,1024   "
         class="st3" /><rect
         id="rect44"
         height="54.7"
         width="9.2"
         class="st3"
         y="1024"
         x="1355.6" /><path
         id="path46"
         d="M1383,1023.3c-4.2,0-7.6,1.2-9.8,3.7c-2.3,2.4-3.4,5.9-3.4,10.3v28.4c0,4.4,1.1,7.9,3.4,10.3h0    c2.3,2.4,5.6,3.7,9.8,3.7c4.2,0,7.6-1.2,9.8-3.7c2.3-2.4,3.4-5.9,3.4-10.3v-28.4c0-4.4-1.1-7.9-3.4-10.3    C1390.6,1024.5,1387.3,1023.3,1383,1023.3z M1387,1066.1c0,3.3-1.3,4.9-4,4.9c-2.7,0-4-1.6-4-4.9v-29.4c0-3.3,1.3-4.9,4-4.9    c2.7,0,4,1.6,4,4.9V1066.1z"
         class="st3" /><polygon
         id="polygon48"
         points="1420.2,1054.3 1412.5,1024 1401.2,1024 1401.2,1078.7 1409.5,1078.7 1409.5,1041.3 1419.1,1078.5     1419.2,1078.7 1428.5,1078.7 1428.5,1024 1420.2,1024   "
         class="st3" /><path
         id="path50"
         d="M1452.9,1024h-12.1l-8.9,54.7h8.6l1.5-10.6h9l1.5,10.6h9.2l-8.9-54.4L1452.9,1024z M1449.9,1060.1h-6.8    l3.3-24.1L1449.9,1060.1z"
         class="st3" /><polygon
         id="polygon52"
         points="1474.3,1024 1465,1024 1465,1078.7 1488.2,1078.7 1488.2,1070.3 1474.3,1070.3   "
         class="st3" /><path
         id="path54"
         d="M1522.6,1024h-12.1l-8.9,54.7h8.6l1.5-10.6h9l1.5,10.6h9.2l-8.9-54.4L1522.6,1024z M1519.6,1060.1h-6.8    l3.3-24.1L1519.6,1060.1z"
         class="st3" /><rect
         id="rect56"
         height="54.7"
         width="9.2"
         class="st3"
         y="1024"
         x="1534.8" /><path
         id="path58"
         d="M1575.7,1075.5c-0.1-0.9-0.2-2.2-0.2-3.7v-9.5c0-3.2-0.4-5.8-1.3-7.8c-0.8-1.8-2.1-3-3.9-3.7    c3.4-1.7,5.1-5.3,5.1-10.7v-3.3c0-4.3-1-7.5-3.1-9.6c-2.1-2.1-5.4-3.2-9.8-3.2h-12.9v54.7h9.2v-23.1h2.6c1.8,0,3.1,0.4,3.8,1.3    c0.7,0.9,1.1,2.6,1.1,4.9v9.9c0,2,0.1,3.4,0.2,4.2c0.1,0.8,0.3,1.7,0.6,2.5l0.1,0.2h9.5l-0.2-0.5    C1576,1077.3,1575.8,1076.4,1575.7,1075.5z M1566.2,1037.7v4.2c0,1.9-0.4,3.3-1.2,4.1c-0.8,0.8-2,1.2-3.5,1.2h-2.7v-14.7h3.5    c1.4,0,2.4,0.4,3,1.2C1565.9,1034.5,1566.2,1035.8,1566.2,1037.7z"
         class="st3" /><path
         id="path60"
         d="M1593.5,1024h-12.9v54.7h9.2v-22h3.6c4.3,0,7.6-1.2,9.8-3.5c2.2-2.3,3.3-5.8,3.3-10.2v-5.3    c0-4.4-1.1-7.9-3.3-10.2C1601.1,1025.2,1597.8,1024,1593.5,1024z M1597.3,1043.6c0,1.7-0.3,3-0.9,3.7c-0.6,0.7-1.6,1-2.8,1h-3.6    v-15.8h3.6c1.3,0,2.2,0.3,2.8,1c0.6,0.7,0.9,1.9,0.9,3.7V1043.6z"
         class="st3" /><path
         id="path62"
         d="M1623,1023.3c-4.3,0-7.6,1.2-9.8,3.7c-2.3,2.4-3.4,5.9-3.4,10.3v28.4c0,4.4,1.1,7.9,3.4,10.3    c2.3,2.4,5.6,3.7,9.8,3.7c4.3,0,7.6-1.2,9.8-3.7c2.3-2.4,3.4-5.9,3.4-10.3v-28.4c0-4.4-1.1-7.9-3.4-10.3    C1630.6,1024.5,1627.3,1023.3,1623,1023.3z M1627,1066.1c0,3.3-1.3,4.9-4,4.9c-2.7,0-4-1.6-4-4.9v-29.4c0-3.3,1.3-4.9,4-4.9    c2.7,0,4,1.6,4,4.9V1066.1z"
         class="st3" /><path
         id="path64"
         d="M1667.3,1075.5c-0.1-0.9-0.2-2.2-0.2-3.7v-9.5c0-3.2-0.4-5.8-1.3-7.8c-0.8-1.8-2.1-3-3.9-3.7    c3.4-1.7,5.1-5.3,5.1-10.7v-3.3c0-4.3-1-7.5-3.1-9.6c-2.1-2.1-5.4-3.2-9.8-3.2h-12.9v54.7h9.2v-23.1h2.6c1.8,0,3.1,0.4,3.8,1.3    c0.7,0.9,1.1,2.6,1.1,4.9v9.9c0,2,0.1,3.4,0.2,4.2c0.1,0.8,0.3,1.7,0.6,2.5l0.1,0.2h9.5l-0.2-0.5    C1667.7,1077.3,1667.4,1076.4,1667.3,1075.5z M1657.9,1037.7v4.2c0,1.9-0.4,3.3-1.2,4.1c-0.8,0.8-2,1.2-3.5,1.2h-2.7v-14.7h3.5    c1.4,0,2.4,0.4,3,1.2C1657.6,1034.5,1657.9,1035.8,1657.9,1037.7z"
         class="st3" /><polygon
         id="polygon66"
         points="1669.9,1024 1669.9,1032.5 1678.8,1032.5 1678.8,1078.7 1688,1078.7 1688,1032.5 1696.9,1032.5     1696.9,1024   "
         class="st3" /></g><path
       id="path70"
       d="M1337.7,905c7.1,0.2,13.9,0.3,20.2,0.3c21.8,0.1,40.8-0.5,58-1.7c22.2-1.6,44.6-3.7,66.4-5.7   c2.2-0.2,4.4-0.4,6.6-0.6c-2.6,0.1-5.1,0.2-7.6,0.2c-3.7,0.1-7.4,0.1-11,0.2c-18.9,0.3-38.5,0.7-57.8,0.5c-18.5-0.2-36.3-1-57.6-2   c-5.6-0.3-11.3-0.6-16.9-1.1"
       class="st3" /><path
       id="path72"
       d="M1267.1,884.1c-16.3-4-29.7-8.7-42-14.8c-11.3-5.6-20.8-12.4-29-21c-4.9-5.1-6.4-10.7-4.7-18   c2.7-11.8,8.3-23.3,17.1-35.1c18.2-24.3,41-43,62.9-59.5c22.6-17,47.3-33.4,73.4-48.6c19.2-11.2,38.8-22.3,57.8-33   c4.6-2.6,9.2-5.2,13.8-7.8l0.7-0.4c1-0.6,2-1.1,2.8-1.7c13.7-7.6,27.4-15.1,40.8-22.4c5-2.7,9.9-5.4,14.9-8.2l0.8-0.4   c2.6-1.4,4.9-2.7,5.8-5.3c-0.2-0.2-0.5-0.5-0.7-0.7c-0.8-0.8-1.7-1.6-2.3-2.7c-3.3-5.8-6.5-11.8-9.7-18c-1.9-3.6-3.8-7.4-5.6-11   c-1.5-2.9-3-5.9-4.5-8.8c-0.4-0.9-1-1.7-1.6-2.6c-0.1-0.2-0.3-0.4-0.4-0.6c-1.1,0.6-2.2,1.2-3.2,1.8c-2.8,1.6-5.5,3.1-8.2,4.8   c-6.2,4-12.4,7.9-18.7,11.8c-11.3,7.2-22.9,14.5-34.4,21.9c-1.9,1.1-3.8,2.3-5.7,3.5c-5.8,3.8-11.5,7.5-17.3,11.3   c-15.5,10.1-31.4,20.5-46.9,31.1c-37,25.3-65.6,48.4-90,72.7c-17.3,17.2-28.8,31.9-37.3,47.6c-8.1,14.9-11.9,29.2-11.5,43.5   c0.2,7.7,2.4,15.2,4.5,22.3c0.9,3,1.8,6.1,2.6,9.2c3.1,12.5,10.1,22.6,21.5,30.7c11.6,8.3,25.2,14.1,44.1,18.9   c3.3,0.8,6.7,1.6,10,2.3"
       class="st3" /><path
       id="path74"
       d="M1715.8,451.7c-3.6-0.9-7.2-0.5-10.8,0c-7.2,1.1-14.1,3.5-20.9,6c-1.2,0.4-2.4,1.1-3.5,1.7   c-1.8,0.6-3.7,1.1-5.4,1.9c-8.7,4.3-17.4,8.6-26,13c-5.5,2.8-10.9,5.8-16.3,8.7c-0.5,0.3-1.4,0.2-1.9-0.1c-3.3-2.1-6.6-4.2-9.9-6.4   c-0.7-0.4-1.3-1-2.1-1.6c2.1-1.1,4-2.1,6-3.1c-1.3-6.5-4.1-12.2-8.7-16.9c-0.3-0.3-1.3-0.2-1.8,0.1c-4.5,2.4-8.9,4.8-13.4,7.2   c-0.5,0.2-1.3,0.3-1.8,0c-4.3-2.7-8.5-5.5-12.7-8.3c-0.3-0.2-0.6-0.5-1.1-0.9c1.4-0.7,2.6-1.4,3.8-2c0.8-0.4,1-0.9,0.8-1.7   c-1.4-5.7-4-10.8-7.9-15.3c-0.7-0.8-1.3-0.8-2.3-0.3c-4.1,2.2-8.2,4.4-12.4,6.6c-0.5,0.2-1.3,0.2-1.7,0   c-10.8-7-21.7-13.9-32.3-21.2c-3.4-2.3-6.5-3.5-10.5-2.1c-1.8,0.6-3.7,0.7-5.8,1.1c0.5,0.6,0.8,1,1.2,1.4   c7.3,8.1,14.6,16.2,22,24.2c11,12.1,22.1,24.1,33.1,36.2c1.6,1.7,3.3,3.4,4.4,5.4c3.7,6.7,7.1,13.5,10.6,20.2   c0.3,0.5,0.5,1,0.8,1.5c-8.7,4.9-17.3,9.7-25.7,14.6c-7.1,4.1-14.1,8.4-21,12.7c-5.4,3.3-10.7,6.8-16,10.2   c-0.9,0.6-1.6,0.6-2.6,0.1c-2.2-1.2-4.5-2.3-6.8-3.4c-2.4-1.1-4.8-2.2-7.2-3.3c-0.4-0.3-0.7-0.6-1.1-0.8c-9-4.5-18-8.9-27-13.3   c-0.4-0.2-1.1-0.4-1.4-0.2c-3.2,1.6-6.3,3.3-9.5,5c0.3,0.4,0.4,0.7,0.6,0.9c10,10.5,19.9,21,29.9,31.4c0.3,0.3,0.8,0.4,1.2,0.6   c0.7,1.4-0.7,2.2-1,3.2c-0.5,0.7-1.3,1.3-1.5,2.1c-0.3,1.2-1.1,1.8-2.1,2.3c-0.9,0.5-1.7,1.1-2.5,1.6c-0.5,0.1-1,0.2-1.5,0.4   c-4.9,2.7-9.8,5.4-14.6,8.2c-0.3,0.2-0.5,0.4-0.7,0.6c0.1,0.1,0.1,0.2,0.2,0.3c5.9-3,11.8-5.9,17.7-8.9c0.1,0,0.1-0.2,0.2-0.3   c1.1-0.6,2.2-1.2,3.3-1.7c1.8,0.2,3.5,0.6,5.3,0.6c1.2,0,1.6,0.2,1.9,1.3c0.2,1.2,0.8,2.3,1.3,3.5c0,0.6-0.2,1.2,0,1.8   c2.2,9.3,4.4,18.6,6.6,27.9c0.8,3.5,1.7,6.9,2.6,10.6c2.4-1.3,4.6-2.5,6.9-3.6c1.4-0.6,1.9-1.5,2.1-3c0.9-6.6,2-13.2,2.9-19.8   c0.3-2.3,0.5-4.7,0.8-7c0.3-1,0.6-2,0.8-3.1c0.8-5.3,1.6-10.5,2.5-15.8c0.1-0.5,0.6-1.2,1.1-1.4c9.1-3.9,18.3-7.5,27.3-11.6   c12.8-5.9,25.5-12.1,38.1-18.2c1.2-0.6,1.7-0.5,2.4,0.8c3.4,6.7,6.9,13.3,10.4,20c0.4,0.7,0.6,1.5,0.8,2.3   c3.1,13.3,6.2,26.6,9.3,39.9c3,13,6.1,26.1,9.1,39.1c0.5,2.1,1,4.3,1.6,6.6c3.1-2.8,6.1-5.4,8.9-8.1c0.4-0.3,0.4-1.1,0.4-1.7   c0.2-14,0.4-27.9,0.6-41.9c0-1,0.3-1.6,1.2-2c4.2-2.1,8.4-4.4,12.5-6.6c0.7-0.3,1.2-0.6,0.9-1.6c-1.4-5.9-4-11.2-8.1-15.7   c-0.6-0.7-1.1-0.8-1.9-0.3c-1.3,0.8-2.7,1.4-4.3,2.3c0.1-5.7,0.2-10.9,0.2-16.2c0-1.2,0.4-1.7,1.4-2.2c4.1-2.1,8.2-4.3,12.2-6.5   c0.5-0.3,1.1-1,1-1.4c-1.2-6-3.8-11.3-8.2-15.8c-0.3-0.3-1.2-0.5-1.7-0.3c-1.4,0.5-2.7,1.2-4.2,1.9c-0.1-0.5-0.1-0.9-0.1-1.2   c0.1-4.3,0.3-8.6,0.3-12.9c0-1.2,0.5-1.8,1.6-2.4c13.9-7.3,27.7-14.5,41.5-21.9c2.6-1.4,5-3.3,7.5-4.9c0.3-0.1,0.6-0.1,0.8-0.2   c3.2-2.5,6.5-4.9,9.7-7.5c1.6-1.3,2.9-2.9,4.4-4.3c3.8-3.5,7.1-7.3,8.5-12.5C1719.6,454,1718.4,452.4,1715.8,451.7z"
       class="st3" /><rect
       id="rect76"
       height="10.4"
       width="723.2"
       class="st3"
       y="983.4"
       x="968.2" /></g></svg>